Coordinates
version=1
nRows=13
nColumns=36
inDegrees=yes

Units are S.I. units (second, meters, Newtons, ...)
If the header above contains a line with 'inDegrees', this indicates whether rotational values are in degrees (yes) or radians (no).

endheader
time	pelvis_tilt	pelvis_list	pelvis_rotation	pelvis_tx	pelvis_ty	pelvis_tz	hip_flexion_r	hip_adduction_r	hip_rotation_r	knee_angle_r	knee_angle_r_beta	ankle_angle_r	subtalar_angle_r	mtp_angle_r	hip_flexion_l	hip_adduction_l	hip_rotation_l	knee_angle_l	knee_angle_l_beta	ankle_angle_l	subtalar_angle_l	mtp_angle_l	lumbar_extension	lumbar_bending	lumbar_rotation	arm_flex_r	arm_add_r	arm_rot_r	elbow_flex_r	pro_sup_r	arm_flex_l	arm_add_l	arm_rot_l	elbow_flex_l	pro_sup_l
      0.32000000	     -2.97935818	     -3.94155441	      1.32239553	      0.28348037	      0.90587714	     -0.19579395	     12.42613511	      9.66760703	      4.09136145	     20.29357626	      0.35418972	      7.91381034	     -8.86860357	     -6.25941884	     26.47943077	     -5.72863743	     -2.97868565	     74.51473346	      1.30052744	     -1.83521788	    -18.10277086	     -6.25941884	     -6.53008055	      7.01339844	     -0.82784247	     -0.28153436	    -15.05041226	      1.82926703	     43.04320207	    106.74430331	     -2.79108049	    -10.97046449	     -1.93875605	     43.74381913	    104.23756061
      0.33000000	     -3.12583154	     -3.65015399	      1.12791875	      0.29457926	      0.90702146	     -0.19568112	     11.03019010	      9.48555909	      5.10151795	     18.93420542	      0.33046423	      8.24166189	     -8.56550800	     -6.27166556	     28.22707823	     -5.11329465	     -2.93898283	     73.64435888	      1.28533654	     -1.02345609	    -18.23876252	     -6.27166556	     -6.40044302	      6.70176735	     -0.51062988	      0.77301054	    -15.24009815	      2.59044983	     44.08680381	    106.83303666	     -3.09776421	    -10.73302549	     -2.19216762	     42.38075040	    104.12189971
      0.34000000	     -3.05626805	     -3.50268102	      0.58857404	      0.30544682	      0.90819578	     -0.19498822	      9.64432431	      9.50441659	      5.97437172	     18.03207721	      0.31471912	      8.42588884	     -8.82583501	     -6.30086242	     29.57190765	     -4.92577891	     -3.18794375	     72.48482814	      1.26509891	     -0.23244741	    -17.77035565	     -6.30086242	     -6.61302606	      6.50475805	      0.40041809	      2.01451907	    -15.67763673	      3.92906888	     44.77825638	    106.86511649	     -3.20342941	    -10.44502760	     -2.47965445	     41.19090992	    104.06388171
      0.35000000	     -3.15419367	     -3.32186278	      0.07016349	      0.31632131	      0.90890698	     -0.19443403	      8.47987034	      9.41600407	      6.66521368	     17.17301350	      0.29972563	      8.51437772	     -8.82769486	     -6.32105173	     30.99592794	     -4.66394104	     -3.36590014	     70.96191043	      1.23851898	      0.37620456	    -17.39229963	     -6.32105173	     -6.62518038	      6.27883017	      1.13723645	      3.24326258	    -15.88863951	      4.59315295	     45.46892398	    106.85910220	     -3.60768092	    -10.27390198	     -2.65576338	     40.52903155	    104.03383825
      0.36000000	     -3.37231135	     -3.35623452	     -0.43237280	      0.32694553	      0.90906540	     -0.19395703	      7.68271316	      9.47587154	      6.56618931	     16.66731024	      0.29089944	      8.62762478	     -8.80769427	     -6.32421066	     32.56315713	     -4.64067709	     -3.40968987	     69.28892486	      1.20931987	      0.60760342	    -17.23988745	     -6.32421066	     -6.52733594	      6.32021476	      1.95687929	      4.47760981	    -16.01167191	      4.66419541	     46.04432811	    106.88262647	     -4.03376053	    -10.10275175	     -2.66838762	     40.27574242	    104.01695687
      0.37000000	     -3.25689880	     -3.07216349	     -1.13991717	      0.33808518	      0.90977866	     -0.19326851	      6.03767311	      9.27216833	      7.98948868	     15.42022343	      0.26913367	      8.92976368	     -8.55551406	     -6.34469434	     33.33843963	     -4.42113810	     -3.77753962	     67.00498990	      1.16945769	      1.51289871	    -16.47305154	     -6.34469434	     -6.78066849	      5.94711374	      2.91424897	      5.59692224	    -16.37655674	      5.69162289	     47.00312400	    106.90910231	     -4.28887030	     -9.89365092	     -3.05784388	     39.36178543	    103.92680621
      0.38000000	     -3.45784599	     -3.01299936	     -1.72524153	      0.34906841	      0.90959616	     -0.19283044	      5.01084873	      9.19816632	      8.37401736	     14.56779181	      0.25425593	      8.99810332	     -8.39395175	     -6.35574959	     34.52238069	     -4.37526287	     -3.86571965	     64.66567063	      1.12862887	      1.99592577	    -15.96986250	     -6.35574959	     -6.64362439	      5.87032781	      3.70501194	      6.70421679	    -16.58318165	      6.09771380	     47.72740198	    106.91544209	     -4.77627370	     -9.75315153	     -3.22247874	     38.95078968	    103.89245506
      0.39000000	     -3.35426605	     -3.04381489	     -2.34877060	      0.36012330	      0.90967722	     -0.19240611	      3.56234360	      9.21069533	      9.05857036	     13.60338620	      0.23742388	      9.25615052	     -8.25746902	     -6.37684147	     35.17552425	     -4.48459523	     -3.95794776	     62.02040186	      1.08246022	      2.72137753	    -15.15021793	     -6.37684147	     -6.89120697	      5.91062749	      4.60028339	      7.88543357	    -16.95473188	      6.83826230	     48.51983566	    106.87943587	     -5.09574678	     -9.51799143	     -3.57778150	     38.47517074	    103.85098282
      0.40000000	     -3.49886017	     -3.07668572	     -2.87465296	      0.37123484	      0.90912418	     -0.19218453	      2.44215215	      9.16924618	      9.42337721	     12.71626545	      0.22194070	      9.36694957	     -7.96096866	     -6.38941281	     36.03027904	     -4.50864376	     -3.84759928	     59.15663760	      1.03247810	      3.14870209	    -14.56408017	     -6.38941281	     -6.78682931	      5.96871231	      5.34641785	      8.95326124	    -17.18710257	      7.24420958	     49.29254827	    106.87150308	     -5.55166328	     -9.34955696	     -3.82573032	     38.14601724	    103.82369122
      0.41000000	     -3.39509215	     -3.19798266	     -3.39392528	      0.38245254	      0.90875643	     -0.19198887	      0.99972320	      9.18935741	      9.80107853	     11.76673970	      0.20536835	      9.66152280	     -7.60582641	     -6.41002849	     36.44639529	     -4.67947888	     -3.77127380	     56.04245292	      0.97812532	      3.67783786	    -13.79325163	     -6.41002849	     -7.03100420	      6.09976537	      6.10927292	     10.05249746	    -17.52442542	      7.86466743	     50.10789780	    106.82230535	     -5.91763552	     -9.09807137	     -4.25910402	     37.80217962	    103.79980678
      0.42000000	     -3.41664722	     -3.32184857	     -3.83056214	      0.39376580	      0.90800498	     -0.19194255	     -0.27005392	      9.18606368	     10.00585618	     10.88371832	      0.18995672	      9.89116661	     -7.13035469	     -6.42997095	     36.88067786	     -4.77511603	     -3.51934384	     52.69594260	      0.91971770	      4.03433802	    -13.07671724	     -6.42997095	     -7.08436680	      6.26317098	      6.76260716	     11.09188528	    -17.80064812	      8.37980336	     50.88670476	    106.76715702	     -6.35400934	     -8.89148490	     -4.69314579	     37.54610050	    103.78709238
      0.43000000	     -3.45033768	     -3.45910015	     -4.21531686	      0.40518297	      0.90705525	     -0.19196971	     -1.52439245	      9.16843171	     10.09173024	     10.01331467	      0.17476531	     10.13568492	     -6.57344971	     -6.44727194	     37.18358929	     -4.84934345	     -3.16719077	     49.09168696	      0.85681157	      4.25242226	    -12.37300693	     -6.44727194	     -7.11010285	      6.44065441	      7.36924421	     12.06991942	    -18.06204296	      8.84727208	     51.66763651	    106.72926184	     -6.78578297	     -8.70059406	     -5.12739821	     37.31965569	    103.76373857
      0.44000000	     -3.44319958	     -3.63032070	     -4.53841096	      0.41671753	      0.90597225	     -0.19209118	     -2.74731214	      9.14258248	      9.73547031	      9.30735641	      0.16244401	     10.79844221	     -5.15592491	     -6.54436271	     37.31598071	     -4.92685095	     -2.72206109	     45.32513478	      0.79107284	      4.53410732	    -11.48110167	     -6.54436271	     -7.17767240	      6.63506262	      7.61999307	     13.35369689	    -18.28460788	      9.99048876	     52.14333294	    106.20153584	     -7.47535247	     -8.35659317	     -6.47002970	     37.48593213	    103.82518165
